<svg xmlns="http://www.w3.org/2000/svg" width="290" height="137" viewBox="0 0 290 137"><path fill="#941508" d="M195 46.5c-5.6-4.6-13.3-3.1-21.9-1-4.5 1.1-9 2.4-13.1 2.5h-1.6l1.4-.8c3-1.7 6.3-5.4 8.8-10 4-7.4 4.9-15.1 1.8-16.7-2.6-1.4-7.5 2-11.4 7.9l-.5.7-.3-.8c-.2-.7-.5-1.5-.8-2.3-2.1-5-5.2-9.2-8.8-11.8-3.5-2.6-7-3.3-9.9-2.1-6 2.5-7.4 12.9-3.1 23.1 2.2 5.1 5.5 9.2 9 11.9 1.1.9 2.8 1.5 2.8 1.5s-1.1-.2-3.2-.8c-8.1-2.4-19.3-9.1-27.3-3.7-6.9 4.6-6.9 11.8-10.2 13.1l1.2 6.4c8.4-2.2 6.6-11.2 14.1-15.1 5.9-3.1 13.7.1 18.1 1 4.8 1.1 9 2 12.9.2.3-.1 1.9-.9 2.2-1l.1-.1h.9l.1.1c1.2 1.5 5.9.9 11.4.1 13.4-2.1 17.8-.9 20.1-.3 5.9 1.5 4.5 11.9 3.6 17.3l5.2-3.6c2.5-4.4 2.7-12.1-1.6-15.7zm-41.4.8c-.4.2-.9.3-1.5.4h-.5c-3.9 0-8.3-4-10.7-9.6-2.9-6.8-3-16.2 1.1-17.9 4.1-1.7 11.1 4.8 13.9 11.6.1.3.2.5.3.8 0 .1.1.3.1.4l.1.2-.1.2c-2.5 5.4-3.3 10.5-2 13.2l.2.4c0-.2-.7.2-.9.3zm2.2-1.8l-.4.5-.3-.6c-.9-1.9-.4-5.4 1.4-9.2l.5-1.2.2 1.3c.7 3.8.2 7.1-1.4 9.2zm1.3 1.6l.6-.9c2.2-3.3 2.8-8.4 1.6-14.1v-.2l.1-.2c2.5-3.1 6-6.3 7.7-5.3 2.1 1.2 2 6.7-1.7 13.3-2.1 3.7-4.9 6.6-7.2 7.2l-1.1.2z"/><path fill="#4A4A4A" d="M96.4 120.1c-1.5 1.6-3.3 3.2-7 3.2-2.1 0-4.7-1-2.3-11.6.6-2.8 2.2-9.8 2.2-9.8s7.3-6.4 23.2-13.3c8-3.5 14.4-5.1 18.6-4.9 2.7.2 4.4 1.1 5 2.8.2.6-.1 1.1-.5.7-.8-1.1-2.4-1.5-4.5-1.6-4.3-.2-9.9 1.4-16.9 4.5-15.9 7-22.3 11.9-22.3 11.9s-1.3 6.2-2 10c-1.6 8.5 0 9.8 1.3 9.8 2.7 0 3.9-1.2 5-2 .1-.3.4 0 .2.3z"/><path fill="#4A4A4A" d="M101 89.2c2.4-1.5 4.7-1.2 5.7-1.3.5 0 .8-.1.8-.2 0-.2-.3-.7-.9-.8-1.2 0-3.1-.3-5.7 1.2-5.2 3-11.9 9-17.6 15-6.9 7.3-12.7 12.7-16.8 15.7-5.7 4.1-10.7 6.2-15.2 6.2-2.5 0-4.5-.6-6.1-1.8-1.8-1.4-2.7-3.3-2.7-5.9 0-2.5 1-5.3 3.1-8.5 2.2-3.3 5.4-6.7 9.5-10.1 1-.8 1.9-1.5 2.8-2.1.6 1.7 1.7 2.9 3.3 3.5.6.2.9.2 1-.1 0-.1-.2-.2-.8-.5-1.5-.7-2.5-1.9-2.9-3.4 2.8-1.8 5.7-3.2 8.6-4.2 3.3-1.2 6.3-1.7 8.8-1.6 3.6.2 5.4 1.8 5.4 4.6 0 .6-.1 1.2-.3 2-.9 3.5-4.6 7.8-11 13-6.7 5.5-11.9 8.2-15.4 8.2-1.1 0-1.9-.2-2.6-.7-.8-.6-1.2-1.4-1.1-2.5 0-.1.1-.4.2-.8.1-.2 0-.4-.1-.4-.4-.1-.6.3-.7 1.2-.2 1.3.2 2.4 1.2 3.1.8.6 1.8.9 3 .9 2.1 0 4.6-.7 7.6-2.1 3.3-1.5 6.4-3.5 9.3-6 5.8-5 9.2-9.6 10.3-13.9.2-.7.3-1.4.3-2 0-3.2-2.1-5-6.2-5.3-5.6-.4-11.4 1.2-17.7 4.6.4-5.7 6.3-9.8 20-10.2 8.8-.2 16.2.7 23.6 2.4 1.4.4 3 .8 4.2 1 .9.1 1.4 0 1.4 0 .2-.3-.1-.6-.8-.9-1.8-.7-3.1-1.2-4.2-1.5-8.8-2.5-16.9-3.7-24.2-3.7-5.1 0-9.5.8-13.1 2.5-4.2 2-6.6 4.8-7.4 8.5-.1.8-.2 1.6-.2 2.3-1.4.8-2.9 1.7-4.3 2.9-3.9 3.2-6.9 6.5-9 10-1.9 3.2-2.8 6.3-2.8 9.3s1.1 5.3 3.3 6.8c1.8 1.3 4 1.9 6.7 1.9 4.7 0 9.8-1.7 15.4-5 6.4-3.8 13.1-9.7 19.9-17.7 6.1-6.3 10.8-11.3 14.4-13.6z"/><g fill="#4A4A4A"><path d="M121 87l-2.4 9.8h-1.2l10-41.4h1.8l10.2 41.4h-1.3l-2.4-9.8-.2-1.2-7-28c-.1-.3-.4-.3-.5 0l-6.8 28-.2 1.2z"/><path d="M140.5 97.6h-3l-2.6-10.4-.2-1.2-6.4-25.6L122 86l-.2 1.2-2.6 10.4h-2.9l10.4-43.1h3.1l10.7 43.1zm-12.3-40.8c.2 0 .3 0 .5.1l-.2-.8h-.5l-.2.7h.4zm23.9-1.4c6.4 0 8.6 4.2 8.6 10v4.1c0 6.6-3 9.7-9.5 9.7h-5.9v17.6H144V55.4h8.1zm-.9 22.5c5.8 0 8.2-2.5 8.2-8.4v-4.3c0-5.1-1.7-8.7-7.3-8.7h-6.9v21.3h6v.1z"/><path d="M146.1 97.6h-3v-43h9c4.3 0 9.4 1.9 9.4 10.8v4.1c0 7.1-3.4 10.5-10.4 10.5H146v17.6h.1zm0-20.5h5.1c5.3 0 7.4-2.1 7.4-7.6v-4.3c0-5.4-2-7.9-6.4-7.9h-6v19.8h-.1zM174 96.7V56.6h-9v-1.2h19.4v1.2h-9v40.1H174z"/><path d="M176.1 97.6h-3V57.5h-9v-3h21.1v3h-9.1z"/></g><g fill="#4A4A4A"><path d="M112.3 103c-1.4 0-3.2.6-5.3 1.7-2.2 1.2-4.2 2.6-6 4.4-2.7 2.8-4.1 5.3-4.1 7.5 0 1.6.8 2.4 2.3 2.4 2.3 0 5.8-2.3 10.3-6.9 3.2-3.2 4.7-5.8 4.7-7.6.1-1-.6-1.5-1.9-1.5zm-3.3 7.8c-5 5-8.2 7.5-9.6 7.5-.6 0-.8-.3-.8-.8 0-1.1 1.5-3.2 4.5-6.4 4.7-4.9 8-7.4 9.8-7.4.5 0 .7.2.7.6-.1 1.2-1.6 3.4-4.6 6.5z"/><path d="M262.4 111.3c-.2-.2-.5-.1-.8.3-1.7 1.5-3.5 3-5.5 4.5s-3.5 2.2-4.4 2.2c-.4 0-.6-.2-.6-.5 0-.5.6-1.4 1.9-2.8 1.3-1.4 2.7-2.7 4.2-4.1 3.2-2.9 4.8-5 4.8-6.3 0-.4-.2-.8-.5-1.1-.3-.3-.7-.5-1.2-.5-1.4 0-4.1 1.4-8.2 4.1.7-.9 1.1-1.8 1.1-2.7 0-.7-.4-1.2-1.1-1.3-2.2-.4-6.5 2-12.9 7.1 2.7-3.1 5.2-5.4 7.5-7-1.6 0-2.8.3-3.6.8-1.5 1-3.2 2.4-4.9 4.3-1 1.1-2 2.2-2.8 3.2-3 2.6-4.5 3.9-4.6 3.9-2.6 2-4.2 2.9-4.8 2.6-.2-.1-.3-.2-.3-.4 0-.5.8-1.6 2.3-3.5 2.6-3.1 6.1-6.8 10.6-11-1.2-.1-2.1.1-2.8.5-2 1.2-4.7 3.6-8.2 7.2-3.8 1.2-5.7 1.1-5.8-.1 3.1-3.6 5.7-6.1 7.9-7.6-1.6 0-2.8.3-3.6.8-1.4.9-3 2.3-4.8 4.3-.8.9-1.6 1.7-2.3 2.5-.1.1-.2.1-.3.2-2.4 2.2-4.6 4-6.7 5.3-1.9 1.2-3.4 1.8-4.6 1.8-.8 0-1.2-.3-1.2-.9 0-1.6 1.8-4.2 5.5-7.6.2.1.5.2.8.2.7 0 1.7-.2 2.9-.6s2.2-.9 2.9-1.4c1.8-1.3 2.7-2.5 2.7-3.5 0-.9-.5-1.3-1.6-1.3-1.2 0-3 .6-5.2 1.9s-4.2 2.7-6 4.4c-1.5 1.4-2.5 2.8-3.2 4.1-1.6 1.3-2.4 2-2.4 2.1-2.6 2-4.2 2.9-4.8 2.6-.2-.1-.3-.2-.3-.4 0-.5.8-1.6 2.3-3.5 2.6-3.1 6.1-6.8 10.6-11-1.2-.1-2.1.1-2.8.5-2 1.2-4.7 3.5-8 7-2.1 2.2-3.8 3.8-5.1 4.8-2.6 2-4.2 2.9-4.8 2.6-.2-.1-.3-.2-.3-.4 0-.5.8-1.6 2.3-3.5 2.6-3.1 6.1-6.8 10.6-11-1.2-.1-2.4.1-3.8.5-2.6 1.2-5.5 3.5-8.9 7-1.6 1.6-3.1 3-4.5 4.2-3 2.4-4.8 3.5-5.5 3.2-.2-.1-.3-.2-.3-.4 0-.5.8-1.6 2.3-3.5.6-.7 1.4-1.5 2.3-2.5.3-.2.3-.4.2-.6-.1-.1-.4-.1-.7.1-3.3 2.8-5 4.3-5.1 4.4-2.6 2-4.2 2.9-4.8 2.6-.2-.1-.3-.2-.3-.4 0-.5.8-1.6 2.3-3.5 2.6-3.1 6.1-6.8 10.6-11-1.2-.1-2.1.1-2.8.5-2 1.2-4.7 3.5-8 7-2.1 2.2-3.8 3.8-5 4.7-2.6 2.1-4.3 3-5.1 2.6-.2-.1-.3-.2-.3-.4 0-.5.8-1.6 2.3-3.5 2.4-3 6.1-6.5 11.2-10.6-1.3-.1-2.4.1-3.3.6-2.7 1.5-5.4 3.7-8 6.5-.4.4-.8.8-1.1 1.2-2.7 2.3-4.1 3.5-4.2 3.6-2.6 2-4.2 2.9-4.8 2.6-.2-.1-.3-.2-.3-.4 0-.5.8-1.6 2.3-3.5 2.6-3.1 6.1-6.8 10.6-11-1.2-.1-2.4.1-3.8.5-2.6 1.2-5.5 3.5-8.9 7-1.6 1.6-3.1 3-4.5 4.2-3 2.4-4.8 3.5-5.5 3.2-.2-.1-.3-.2-.3-.4 0-.5.8-1.6 2.3-3.5.6-.7 1.4-1.5 2.3-2.5.2-.2.3-.4.1-.6-.2-.1-.4-.1-.6.1l-.2.2c-.1 0-.1.1-.2.1-2.4 2-4.3 3.5-5.7 4.7-2 1.4-3.5 2.2-4.4 2.2-.4 0-.5-.2-.5-.5 0-.5.6-1.4 1.9-2.7 1.5-1.6 3-3 4.2-4.1 3.3-2.9 4.9-5 4.9-6.4 0-.9-.6-1.4-1.7-1.4-1.2 0-3.2.9-6.1 2.6-2.2 1.4-4.3 2.9-6.2 4.4 2.7-3.1 5.1-5.3 7.3-6.9-1.6 0-2.8.3-3.6.8-1.4.9-3 2.3-4.8 4.3-.9.9-1.7 1.8-2.5 2.7-3.3 2.8-5 4.3-5.1 4.3-2.6 2-4.2 2.9-4.8 2.6-.2-.1-.3-.2-.3-.4 0-.5.8-1.6 2.3-3.5 2.6-3.1 6.1-6.8 10.6-11-1.2-.1-2.1.1-2.8.5-2 1.2-4.7 3.5-8 7-2.1 2.2-3.8 3.8-5.1 4.8-2.6 2-4.2 2.9-4.8 2.6-.2-.1-.3-.2-.3-.4 0-.5.8-1.6 2.3-3.5 2.6-3.1 6.1-6.8 10.6-11-1.2-.1-2.4.1-3.8.5-2.6 1.2-5.5 3.5-8.9 7-1.6 1.6-3.1 3-4.5 4.2-3 2.4-4.7 3.3-6.3 3-2.1-.5-1.5-1.5-1.5-1.5s-.8.1-.9.6c-.1.6.6 1.5 2 1.7 2 .4 4.2-1 7.5-3.7 1.5-1.4 3.3-3.1 5.4-5.2 2-1.9 3.3-2.8 4-2.8h.4c-5.8 5.4-8.5 8.8-8.2 10.2 0 1.1.6 1.7 1.9 1.7 1 0 2.8-1 5.5-3.1.7-.6 1.3-1.1 1.7-1.6-.7 1.1-1 2.1-1 2.9 0 1.1.6 1.7 1.9 1.7 1 0 2.8-1 5.5-3.1.7-.6 1.4-1.1 2-1.6-.7 1-1.4 2-1.8 2.9-.2.4-.2.8-.1 1.3s.3.8.6.8c2.4-3.1 4.7-5.6 6.7-7.5 1.8-1.7 4.2-3.5 7.3-5.4s4.9-2.7 5.5-2.5c.1 0 .2.1.2.2 0 .4-.7 1.2-2.1 2.5-1.1.9-2.2 1.9-3.3 2.8-2.2 2-3.7 3.6-4.5 4.8-.7 1-1.1 2-1.1 2.8 0 1.1.4 1.7 1.3 1.9 1.3.3 3.1-.4 5.6-2.2.7-.5 1.5-1.1 2.5-1.9-.6.7-1 1.4-1.3 2-.6 1.3-.3 1.9.9 2.1.9.1 3-1.2 6.3-4 1.5-1.4 3.3-3.1 5.4-5.2 2-1.9 3.3-2.8 4-2.8h.4c-5.8 5.4-8.5 8.8-8.2 10.2 0 1.1.6 1.7 1.9 1.7 1 0 2.8-1 5.5-3.1.6-.5 1.2-.9 1.7-1.4-.6 1.1-.9 2.1-.9 2.9 0 1 .6 1.5 1.8 1.5s3.1-1 5.7-3.1c.8-.6 1.4-1.1 1.8-1.6-.7 1.1-1 2.1-1 2.9 0 1.1.6 1.7 1.9 1.7 1 0 2.8-1 5.5-3.1.4-.3.7-.6 1.1-.8-.5.7-.9 1.3-1.2 1.8-.6 1.3-.3 1.9.9 2.1.9.1 3-1.2 6.3-4 1.5-1.4 3.3-3.1 5.4-5.2 2-1.9 3.3-2.8 4-2.8h.4c-5.8 5.4-8.5 8.8-8.2 10.2 0 1.1.6 1.7 1.9 1.7 1 0 2.8-1 5.5-3.1.7-.6 1.3-1.1 1.7-1.6-.7 1.1-1 2.1-1 2.9 0 1.1.6 1.7 1.9 1.7 1 0 2.8-1 5.5-3.1.4-.3.8-.6 1.2-1l-.3 1.2c-.1 1.7.7 2.7 2.4 2.8 1.7.2 3.9-.6 6.4-2.4 1.2-.8 2.3-1.7 3.5-2.7-.9 1.2-1.6 2.3-2.1 3.3-.2.4-.2.8-.1 1.3s.3.8.6.8c2.4-3.1 4.5-5.4 6.1-7 .6.7 2.5.7 5.9-.2-1.8 1.9-2.7 3.5-3 5.1 0 1.4.7 2 2.1 1.9 1 0 2.8-1 5.5-3.1.6-.5 1.2-.9 1.7-1.4-.7.9-1.2 1.8-1.6 2.6-.1.4-.2.8-.1 1.3s.3.8.6.8c2.4-3 4.6-5.5 6.7-7.5 1.9-1.8 4.3-3.6 7.4-5.4 3-1.9 4.9-2.7 5.5-2.4.1 0 .2.1.2.2 0 .4-.7 1.2-2.2 2.4-1.9 1.7-3 2.7-3.2 2.9-3 3.2-5 5.8-6 7.7-.1.3-.2.7-.1 1.2.1.6.2.8.5.8 3.1-3.8 5.7-6.6 7.7-8.4 1.8-1.6 4-3.1 6.6-4.7 2.5-1.5 4.2-2.3 4.9-2.3.2 0 .3.1.3.3 0 .4-.7 1.2-2.1 2.4-1.1.9-2.2 1.9-3.3 2.8-2.2 2-3.7 3.6-4.5 4.8-.7 1-1.1 2-1.1 2.8 0 1.1.4 1.7 1.3 1.9 1.3.3 3.1-.4 5.6-2.2 1.9-1.3 3.9-2.9 5.9-4.7.7.8.9.6.7.4zm-45.6-5.9c1.9-1.4 3-1.9 3.3-1.7.1.1.1.2.1.3 0 .7-.8 1.7-2.4 3-2.1 1.7-3.9 2.5-5.3 2.5-.2 0-.3 0-.4-.1 1.3-1.4 2.9-2.7 4.7-4z"/><circle cx="103.4" cy="117.2" r=".8"/></g><path d="M22.3 22.8h-4v7.7h-1.4v-9h6.9v9h-1.4v-7.7h-.1zM26 26c0-1.5.3-2.7 1-3.5s1.7-1.2 2.9-1.2c.7 0 1.3.1 1.8.3.5.2.9.5 1.2 1 .3.4.6.9.7 1.5.2.6.2 1.2.2 1.9 0 1.5-.3 2.7-1 3.5s-1.7 1.2-2.9 1.2c-.7 0-1.3-.1-1.8-.3s-.9-.5-1.2-1c-.3-.4-.6-.9-.7-1.5-.1-.5-.2-1.2-.2-1.9zm1.5 0c0 .5 0 .9.1 1.3s.2.8.4 1.1c.2.3.4.6.8.8.3.2.7.3 1.1.3 1.6 0 2.4-1.1 2.4-3.5 0-.5 0-.9-.1-1.3s-.2-.8-.4-1.1c-.2-.3-.4-.6-.8-.7-.3-.2-.7-.3-1.1-.3-1.6-.1-2.4 1.1-2.4 3.4zm8.7-4.5h1l.3 1.1h.1c.3-.4.6-.7 1.1-1 .4-.2.9-.3 1.5-.3 1.2 0 2.1.4 2.7 1.1s.9 1.9.9 3.5c0 .8-.1 1.4-.3 2s-.5 1.1-.8 1.5c-.4.4-.8.7-1.3 1s-1.1.3-1.7.3c-.4 0-.8 0-1.1-.1s-.5-.1-.8-.3V34h-1.4V21.5h-.2zm3.6 1c-.6 0-1.1.2-1.4.5-.4.3-.6.8-.7 1.4v4.5c.2.2.5.3.7.4.3.1.6.1 1.1.1.8 0 1.5-.3 2-.9s.7-1.5.7-2.7c0-.5 0-.9-.1-1.3s-.2-.7-.4-1-.4-.5-.7-.7c-.4-.2-.8-.3-1.2-.3zm11.6.3h-2.8v7.7h-1.4v-7.7h-2.8v-1.3h7.1l-.1 1.3zm1.4-1.3h1l.3 1.1h.1c.3-.4.6-.7 1.1-1 .4-.2.9-.3 1.5-.3 1.2 0 2.1.4 2.7 1.1s.9 1.9.9 3.5c0 .8-.1 1.4-.3 2s-.5 1.1-.8 1.5c-.4.4-.8.7-1.3 1s-1.1.3-1.7.3c-.4 0-.8 0-1.1-.1s-.5-.1-.8-.3V34H53V21.5h-.2zm3.6 1c-.6 0-1.1.2-1.4.5-.4.3-.6.8-.7 1.4v4.5c.2.2.5.3.7.4.3.1.6.1 1.1.1.8 0 1.5-.3 2-.9s.7-1.5.7-2.7c0-.5 0-.9-.1-1.3s-.2-.7-.4-1-.4-.5-.7-.7c-.4-.2-.8-.3-1.2-.3zm12.7 7.3c-.4.3-.8.5-1.4.7s-1.1.3-1.7.3c-.7 0-1.3-.1-1.8-.3s-.9-.5-1.2-1-.6-.9-.7-1.5c-.2-.6-.3-1.3-.3-2 0-1.5.3-2.7 1-3.5s1.7-1.2 2.9-1.2c.4 0 .8 0 1.2.1.4.1.8.3 1.1.5s.6.6.8 1.1.3 1.1.3 1.8c0 .4 0 .8-.1 1.3h-5.8c0 .5.1 1 .2 1.4.1.4.3.8.5 1 .2.3.5.5.9.6s.8.2 1.3.2c.4 0 .8-.1 1.2-.2.4-.1.7-.3.9-.5l.7 1.2zM66 22.5c-.7 0-1.3.2-1.7.6-.4.4-.7 1-.8 1.9H68c0-.9-.2-1.6-.5-1.9-.4-.4-.9-.6-1.5-.6zm11.4.3h-2.8v7.7h-1.4v-7.7h-2.8v-1.3h7.1l-.1 1.3zm6.9 3.7h-4.1v4h-1.4v-9h1.4v3.8h4.1v-3.8h1.4v9h-1.4v-4zm4.1-4.3c.5-.3 1-.5 1.6-.6s1.2-.2 1.9-.2c.6 0 1.1.1 1.5.3s.7.4.9.7c.2.3.3.6.4.9s.1.6.1 1c0 .7 0 1.4-.1 2.1 0 .7-.1 1.3-.1 1.9 0 .4 0 .9.1 1.3 0 .4.1.8.2 1.1h-1.1l-.4-1.3h-.1c-.1.2-.2.3-.4.5s-.4.3-.6.4-.5.2-.8.3c-.3.1-.6.1-1 .1s-.7-.1-1.1-.2-.6-.3-.9-.5-.4-.5-.6-.8c-.1-.3-.2-.7-.2-1.1 0-.5.1-1 .3-1.3.2-.4.5-.6.9-.8.4-.2.9-.4 1.4-.5s1.1-.1 1.8-.1h1c0-.4.1-.7.1-1 0-.7-.1-1.1-.4-1.4s-.7-.4-1.4-.4h-.7c-.2 0-.5.1-.7.1s-.5.1-.7.2l-.6.3-.3-1zm2.6 7.2c.3 0 .6 0 .9-.1s.5-.2.7-.3.4-.3.5-.5.2-.3.3-.5v-1.5h-1c-.4 0-.7 0-1.1.1-.4 0-.7.1-.9.2-.3.1-.5.3-.6.5-.2.2-.2.4-.2.7 0 .4.1.8.5 1 0 .2.4.4.9.4zm11-2.6l-1.4.2-2.4 3.5h-1.7l2.2-3.1.7-.7c-.6-.1-1.2-.3-1.6-.8-.4-.4-.7-1-.7-1.7 0-.5.1-1 .3-1.4.2-.4.5-.7.8-1s.8-.4 1.2-.5c.5-.1 1-.2 1.6-.2.4 0 .9 0 1.2.1.4.1.8.1 1.1.2v8.9H102v-3.5zm0-4.1c-.2-.1-.3-.1-.5-.1h-.5c-.8 0-1.4.1-1.8.4s-.6.7-.6 1.3c0 .5.2 1 .6 1.3s1 .4 1.7.4h1.1v-3.3zM23 51.5c-.4.3-.8.5-1.3.6s-1 .2-1.5.2c-.7 0-1.3-.1-1.8-.3s-.9-.5-1.2-1c-.3-.4-.5-.9-.7-1.5-.1-.6-.2-1.2-.2-1.9 0-1.5.3-2.7 1-3.5s1.6-1.2 2.9-1.2c.6 0 1.1 0 1.5.1s.8.2 1.1.4l-.4 1.2c-.3-.2-.6-.3-.9-.4-.3-.1-.7-.1-1.1-.1-1.7 0-2.6 1.2-2.6 3.5 0 .5 0 .9.1 1.3s.2.8.4 1.1c.2.3.5.6.8.8s.8.3 1.3.3c.4 0 .8-.1 1.2-.2.3-.1.6-.3.8-.5l.6 1.1zm7.5-7.1h-2.8v7.7h-1.4v-7.7h-2.8v-1.3h7.1v1.3h-.1zm4 4.5l.5 1.7h.1l.4-1.7 1.8-5.8h1.4L36 51.2c-.2.6-.4 1.2-.6 1.7-.2.6-.4 1-.7 1.5-.2.4-.5.8-.8 1-.3.3-.6.4-1 .4s-.8-.1-1.1-.2l.3-1.2c.2.1.3.1.5.1.3 0 .7-.2 1-.5.3-.4.6-1 .8-1.8l-3.6-9h1.7l2 5.7zM48 54.4h-1l-.3-2.3H40l-.3 2.3h-1v-3.5h1.1c.1-.1.2-.4.4-.7s.3-.8.5-1.4c.1-.6.3-1.4.4-2.3s.2-2 .2-3.3h5.4v7.7H48v3.5zm-2.8-3.6v-6.5h-2.7c0 .5-.1 1.1-.1 1.6-.1.6-.1 1.2-.2 1.8-.1.6-.2 1.2-.4 1.7s-.3 1-.5 1.4h3.9zm10.2-4l.1-1.1h-.1l-.7 1.2-4 5.3h-.8v-9h1.4v5.5l-.1 1.1h.1l.7-1.1 4-5.4h.8v9h-1.4v-5.5zm8.7 1.6l-1.4.2-2.4 3.5h-1.7l2.2-3.1.7-.7c-.6-.1-1.2-.3-1.6-.8-.4-.4-.7-1-.7-1.7 0-.5.1-1 .3-1.4s.5-.7.8-1 .8-.4 1.2-.5c.5-.1 1-.2 1.6-.2.4 0 .9 0 1.2.1.4.1.8.1 1.1.2v8.9H64v-3.5h.1zm0-4.1c-.2-.1-.3-.1-.5-.1h-.5c-.8 0-1.4.1-1.8.4s-.6.7-.6 1.3c0 .5.2 1 .6 1.3s1 .4 1.7.4h1.1v-3.3z" fill="#484848"/></svg>