<?xml version="1.0" encoding="utf-8"?>
<!-- Generator: Adobe Illustrator 17.1.0, SVG Export Plug-In . SVG Version: 6.00 Build 0)  -->
<!DOCTYPE svg PUBLIC "-//W3C//DTD SVG 1.1//EN" "http://www.w3.org/Graphics/SVG/1.1/DTD/svg11.dtd">
<svg version="1.1" id="Isolation_Mode" xmlns="http://www.w3.org/2000/svg" xmlns:xlink="http://www.w3.org/1999/xlink" x="0px"
	 y="0px" width="290px" height="137px" viewBox="0 0 290 137" enable-background="new 0 0 290 137" xml:space="preserve">
<g>
	<rect x="-0.2" y="0.2" fill="#FFFFFF" width="290.3" height="136.7"/>
	<g>
		<path fill="#941508" d="M195,46.5c-5.6-4.6-13.3-3.1-21.9-1c-4.5,1.1-9,2.4-13.1,2.5c-0.4,0-1.6,0-1.6,0l1.4-0.8
			c3-1.7,6.3-5.4,8.8-10c4-7.4,4.9-15.1,1.8-16.7c-2.6-1.4-7.5,2-11.4,7.9l-0.5,0.7l-0.3-0.8c-0.2-0.7-0.5-1.5-0.8-2.3
			c-2.1-5-5.2-9.2-8.8-11.8c-3.5-2.6-7-3.3-9.9-2.1c-6,2.5-7.4,12.9-3.1,23.1c2.2,5.1,5.5,9.2,9,11.9c1.1,0.9,2.8,1.5,2.8,1.5
			s-1.1-0.2-3.2-0.8c-8.1-2.4-19.3-9.1-27.3-3.7c-6.9,4.6-6.9,11.8-10.2,13.1l1.2,6.4c8.4-2.2,6.6-11.2,14.1-15.1
			c5.9-3.1,13.7,0.1,18.1,1c4.8,1.1,9,2,12.9,0.2c0.3-0.1,1.9-0.9,2.2-1l0.1-0.1h0.9l0.1,0.1c1.2,1.5,5.9,0.9,11.4,0.1
			c13.4-2.1,17.8-0.9,20.1-0.3c5.9,1.5,4.5,11.9,3.6,17.3l5.2-3.6C199.1,57.8,199.3,50.1,195,46.5z M153.6,47.3
			c-0.4,0.2-0.9,0.3-1.5,0.4l0,0H152c-0.1,0-0.2,0-0.4,0c-3.9,0-8.3-4-10.7-9.6c-2.9-6.8-3-16.2,1.1-17.9
			c4.1-1.7,11.1,4.8,13.9,11.6c0.1,0.3,0.2,0.5,0.3,0.8c0,0.1,0.1,0.3,0.1,0.4l0.1,0.2l-0.1,0.2c-2.5,5.4-3.3,10.5-2,13.2l0.2,0.4
			C154.5,46.8,153.8,47.2,153.6,47.3z M155.8,45.5l-0.4,0.5l-0.3-0.6c-0.9-1.9-0.4-5.4,1.4-9.2L157,35l0.2,1.3
			C157.9,40.1,157.4,43.4,155.8,45.5z M157.1,47.1l0.6-0.9c2.2-3.3,2.8-8.4,1.6-14.1v-0.2l0.1-0.2c2.5-3.1,6-6.3,7.7-5.3
			c2.1,1.2,2,6.7-1.7,13.3c-2.1,3.7-4.9,6.6-7.2,7.2L157.1,47.1z"/>
		<g>
			<g>
				<path fill="#4A4A4A" d="M96.4,120.1c-1.5,1.6-3.3,3.2-7,3.2c-2.1,0-4.7-1-2.3-11.6c0.6-2.8,2.2-9.8,2.2-9.8s7.3-6.4,23.2-13.3
					c8-3.5,14.4-5.1,18.6-4.9c2.7,0.2,4.4,1.1,5,2.8c0.2,0.6-0.1,1.1-0.5,0.7c-0.8-1.1-2.4-1.5-4.5-1.6c-4.3-0.2-9.9,1.4-16.9,4.5
					c-15.9,7-22.3,11.9-22.3,11.9s-1.3,6.2-2,10c-1.6,8.5,0,9.8,1.3,9.8c2.7,0,3.9-1.2,5-2C96.3,119.5,96.6,119.8,96.4,120.1z"/>
			</g>
			<g>
				<path fill="#4A4A4A" d="M101,89.2c2.4-1.5,4.7-1.2,5.7-1.3c0.5,0,0.8-0.1,0.8-0.2c0-0.2-0.3-0.7-0.9-0.8c-1.2,0-3.1-0.3-5.7,1.2
					c-5.2,3-11.9,9-17.6,15c-6.9,7.3-12.7,12.7-16.8,15.7c-5.7,4.1-10.7,6.2-15.2,6.2c-2.5,0-4.5-0.6-6.1-1.8
					c-1.8-1.4-2.7-3.3-2.7-5.9c0-2.5,1-5.3,3.1-8.5c2.2-3.3,5.4-6.7,9.5-10.1c1-0.8,1.9-1.5,2.8-2.1c0.6,1.7,1.7,2.9,3.3,3.5
					c0.6,0.2,0.9,0.2,1-0.1c0-0.1-0.2-0.2-0.8-0.5c-1.5-0.7-2.5-1.9-2.9-3.4c2.8-1.8,5.7-3.2,8.6-4.2c3.3-1.2,6.3-1.7,8.8-1.6
					c3.6,0.2,5.4,1.8,5.4,4.6c0,0.6-0.1,1.2-0.3,2c-0.9,3.5-4.6,7.8-11,13c-6.7,5.5-11.9,8.2-15.4,8.2c-1.1,0-1.9-0.2-2.6-0.7
					c-0.8-0.6-1.2-1.4-1.1-2.5c0-0.1,0.1-0.4,0.2-0.8c0.1-0.2,0-0.4-0.1-0.4c-0.4-0.1-0.6,0.3-0.7,1.2c-0.2,1.3,0.2,2.4,1.2,3.1
					c0.8,0.6,1.8,0.9,3,0.9c2.1,0,4.6-0.7,7.6-2.1c3.3-1.5,6.4-3.5,9.3-6c5.8-5,9.2-9.6,10.3-13.9c0.2-0.7,0.3-1.4,0.3-2
					c0-3.2-2.1-5-6.2-5.3c-5.6-0.4-11.4,1.2-17.7,4.6c0.4-5.7,6.3-9.8,20-10.2c8.8-0.2,16.2,0.7,23.6,2.4c1.4,0.4,3,0.8,4.2,1
					c0.9,0.1,1.4,0,1.4,0c0.2-0.3-0.1-0.6-0.8-0.9c-1.8-0.7-3.1-1.2-4.2-1.5c-8.8-2.5-16.9-3.7-24.2-3.7c-5.1,0-9.5,0.8-13.1,2.5
					c-4.2,2-6.6,4.8-7.4,8.5c-0.1,0.8-0.2,1.6-0.2,2.3c-1.4,0.8-2.9,1.7-4.3,2.9c-3.9,3.2-6.9,6.5-9,10c-1.9,3.2-2.8,6.3-2.8,9.3
					s1.1,5.3,3.3,6.8c1.8,1.3,4,1.9,6.7,1.9c4.7,0,9.8-1.7,15.4-5c6.4-3.8,13.1-9.7,19.9-17.7C92.7,96.5,97.4,91.5,101,89.2z"/>
			</g>
		</g>
		<g>
			<g>
				<path fill="#4A4A4A" d="M121,87l-2.4,9.8h-1.2l10-41.4h1.8l10.2,41.4h-1.3l-2.4-9.8l-0.2-1.2l-7-28c-0.1-0.3-0.4-0.3-0.5,0
					l-6.8,28L121,87z"/>
				<path fill="#4A4A4A" d="M140.5,97.6h-3l-2.6-10.4l-0.2-1.2l-6.4-25.6L122,86l-0.2,1.2l-2.6,10.4h-2.9l10.4-43.1h3.1L140.5,97.6z
					 M128.2,56.8c0.2,0,0.3,0,0.5,0.1l-0.2-0.8H128l-0.2,0.7C128,56.8,128.1,56.8,128.2,56.8z"/>
			</g>
			<g>
				<path fill="#4A4A4A" d="M152.1,55.4c6.4,0,8.6,4.2,8.6,10v4.1c0,6.6-3,9.7-9.5,9.7h-5.9v17.6H144V55.4H152.1z M151.2,77.9
					c5.8,0,8.2-2.5,8.2-8.4v-4.3c0-5.1-1.7-8.7-7.3-8.7h-6.9v21.3h6V77.9z"/>
				<path fill="#4A4A4A" d="M146.1,97.6h-3v-43h9c4.3,0,9.4,1.9,9.4,10.8v4.1c0,7.1-3.4,10.5-10.4,10.5H146v17.6H146.1z M146.1,77.1
					h5.1c5.3,0,7.4-2.1,7.4-7.6v-4.3c0-5.4-2-7.9-6.4-7.9h-6v19.8H146.1z"/>
			</g>
			<g>
				<path fill="#4A4A4A" d="M174,96.7V56.6h-9v-1.2h19.4v1.2h-9v40.1H174z"/>
				<polygon fill="#4A4A4A" points="176.1,97.6 173.1,97.6 173.1,57.5 164.1,57.5 164.1,54.5 185.2,54.5 185.2,57.5 176.1,57.5 				
					"/>
			</g>
		</g>
		<g>
			<g>
				<path fill="#4A4A4A" d="M112.3,103c-1.4,0-3.2,0.6-5.3,1.7c-2.2,1.2-4.2,2.6-6,4.4c-2.7,2.8-4.1,5.3-4.1,7.5
					c0,1.6,0.8,2.4,2.3,2.4c2.3,0,5.8-2.3,10.3-6.9c3.2-3.2,4.7-5.8,4.7-7.6C114.3,103.5,113.6,103,112.3,103z M109,110.8
					c-5,5-8.2,7.5-9.6,7.5c-0.6,0-0.8-0.3-0.8-0.8c0-1.1,1.5-3.2,4.5-6.4c4.7-4.9,8-7.4,9.8-7.4c0.5,0,0.7,0.2,0.7,0.6
					C113.5,105.5,112,107.7,109,110.8z"/>
			</g>
			<g>
				<path fill="#4A4A4A" d="M262.4,111.3c-0.2-0.2-0.5-0.1-0.8,0.3c-1.7,1.5-3.5,3-5.5,4.5s-3.5,2.2-4.4,2.2c-0.4,0-0.6-0.2-0.6-0.5
					c0-0.5,0.6-1.4,1.9-2.8c1.3-1.4,2.7-2.7,4.2-4.1c3.2-2.9,4.8-5,4.8-6.3c0-0.4-0.2-0.8-0.5-1.1c-0.3-0.3-0.7-0.5-1.2-0.5
					c-1.4,0-4.1,1.4-8.2,4.1c0.7-0.9,1.1-1.8,1.1-2.7c0-0.7-0.4-1.2-1.1-1.3c-2.2-0.4-6.5,2-12.9,7.1c2.7-3.1,5.2-5.4,7.5-7
					c-1.6,0-2.8,0.3-3.6,0.8c-1.5,1-3.2,2.4-4.9,4.3c-1,1.1-2,2.2-2.8,3.2c-3,2.6-4.5,3.9-4.6,3.9c-2.6,2-4.2,2.9-4.8,2.6
					c-0.2-0.1-0.3-0.2-0.3-0.4c0-0.5,0.8-1.6,2.3-3.5c2.6-3.1,6.1-6.8,10.6-11c-1.2-0.1-2.1,0.1-2.8,0.5c-2,1.2-4.7,3.6-8.2,7.2
					c-3.8,1.2-5.7,1.1-5.8-0.1c3.1-3.6,5.7-6.1,7.9-7.6c-1.6,0-2.8,0.3-3.6,0.8c-1.4,0.9-3,2.3-4.8,4.3c-0.8,0.9-1.6,1.7-2.3,2.5
					c-0.1,0.1-0.2,0.1-0.3,0.2c-2.4,2.2-4.6,4-6.7,5.3c-1.9,1.2-3.4,1.8-4.6,1.8c-0.8,0-1.2-0.3-1.2-0.9c0-1.6,1.8-4.2,5.5-7.6
					c0.2,0.1,0.5,0.2,0.8,0.2c0.7,0,1.7-0.2,2.9-0.6s2.2-0.9,2.9-1.4c1.8-1.3,2.7-2.5,2.7-3.5c0-0.9-0.5-1.3-1.6-1.3
					c-1.2,0-3,0.6-5.2,1.9s-4.2,2.7-6,4.4c-1.5,1.4-2.5,2.8-3.2,4.1c-1.6,1.3-2.4,2-2.4,2.1c-2.6,2-4.2,2.9-4.8,2.6
					c-0.2-0.1-0.3-0.2-0.3-0.4c0-0.5,0.8-1.6,2.3-3.5c2.6-3.1,6.1-6.8,10.6-11c-1.2-0.1-2.1,0.1-2.8,0.5c-2,1.2-4.7,3.5-8,7
					c-2.1,2.2-3.8,3.8-5.1,4.8c-2.6,2-4.2,2.9-4.8,2.6c-0.2-0.1-0.3-0.2-0.3-0.4c0-0.5,0.8-1.6,2.3-3.5c2.6-3.1,6.1-6.8,10.6-11
					c-1.2-0.1-2.4,0.1-3.8,0.5c-2.6,1.2-5.5,3.5-8.9,7c-1.6,1.6-3.1,3-4.5,4.2c-3,2.4-4.8,3.5-5.5,3.2c-0.2-0.1-0.3-0.2-0.3-0.4
					c0-0.5,0.8-1.6,2.3-3.5c0.6-0.7,1.4-1.5,2.3-2.5l0,0c0.3-0.2,0.3-0.4,0.2-0.6c-0.1-0.1-0.4-0.1-0.7,0.1c-3.3,2.8-5,4.3-5.1,4.4
					c-2.6,2-4.2,2.9-4.8,2.6c-0.2-0.1-0.3-0.2-0.3-0.4c0-0.5,0.8-1.6,2.3-3.5c2.6-3.1,6.1-6.8,10.6-11c-1.2-0.1-2.1,0.1-2.8,0.5
					c-2,1.2-4.7,3.5-8,7c-2.1,2.2-3.8,3.8-5,4.7c-2.6,2.1-4.3,3-5.1,2.6c-0.2-0.1-0.3-0.2-0.3-0.4c0-0.5,0.8-1.6,2.3-3.5
					c2.4-3,6.1-6.5,11.2-10.6c-1.3-0.1-2.4,0.1-3.3,0.6c-2.7,1.5-5.4,3.7-8,6.5c-0.4,0.4-0.8,0.8-1.1,1.2c-2.7,2.3-4.1,3.5-4.2,3.6
					c-2.6,2-4.2,2.9-4.8,2.6c-0.2-0.1-0.3-0.2-0.3-0.4c0-0.5,0.8-1.6,2.3-3.5c2.6-3.1,6.1-6.8,10.6-11c-1.2-0.1-2.4,0.1-3.8,0.5
					c-2.6,1.2-5.5,3.5-8.9,7c-1.6,1.6-3.1,3-4.5,4.2c-3,2.4-4.8,3.5-5.5,3.2c-0.2-0.1-0.3-0.2-0.3-0.4c0-0.5,0.8-1.6,2.3-3.5
					c0.6-0.7,1.4-1.5,2.3-2.5c0.2-0.2,0.3-0.4,0.1-0.6c-0.2-0.1-0.4-0.1-0.6,0.1c-0.1,0.1-0.1,0.1-0.2,0.2c-0.1,0-0.1,0.1-0.2,0.1
					c-2.4,2-4.3,3.5-5.7,4.7c-2,1.4-3.5,2.2-4.4,2.2c-0.4,0-0.5-0.2-0.5-0.5c0-0.5,0.6-1.4,1.9-2.7c1.5-1.6,3-3,4.2-4.1
					c3.3-2.9,4.9-5,4.9-6.4c0-0.9-0.6-1.4-1.7-1.4c-1.2,0-3.2,0.9-6.1,2.6c-2.2,1.4-4.3,2.9-6.2,4.4c2.7-3.1,5.1-5.3,7.3-6.9
					c-1.6,0-2.8,0.3-3.6,0.8c-1.4,0.9-3,2.3-4.8,4.3c-0.9,0.9-1.7,1.8-2.5,2.7c-3.3,2.8-5,4.3-5.1,4.3c-2.6,2-4.2,2.9-4.8,2.6
					c-0.2-0.1-0.3-0.2-0.3-0.4c0-0.5,0.8-1.6,2.3-3.5c2.6-3.1,6.1-6.8,10.6-11c-1.2-0.1-2.1,0.1-2.8,0.5c-2,1.2-4.7,3.5-8,7
					c-2.1,2.2-3.8,3.8-5.1,4.8c-2.6,2-4.2,2.9-4.8,2.6c-0.2-0.1-0.3-0.2-0.3-0.4c0-0.5,0.8-1.6,2.3-3.5c2.6-3.1,6.1-6.8,10.6-11
					c-1.2-0.1-2.4,0.1-3.8,0.5c-2.6,1.2-5.5,3.5-8.9,7c-1.6,1.6-3.1,3-4.5,4.2c-3,2.4-4.7,3.3-6.3,3c-2.1-0.5-1.5-1.5-1.5-1.5
					s-0.8,0.1-0.9,0.6c-0.1,0.6,0.6,1.5,2,1.7c2,0.4,4.2-1,7.5-3.7c1.5-1.4,3.3-3.1,5.4-5.2c2-1.9,3.3-2.8,4-2.8h0.4
					c-5.8,5.4-8.5,8.8-8.2,10.2c0,1.1,0.6,1.7,1.9,1.7c1,0,2.8-1,5.5-3.1c0.7-0.6,1.3-1.1,1.7-1.6c-0.7,1.1-1,2.1-1,2.9
					c0,1.1,0.6,1.7,1.9,1.7c1,0,2.8-1,5.5-3.1c0.7-0.6,1.4-1.1,2-1.6c-0.7,1-1.4,2-1.8,2.9c-0.2,0.4-0.2,0.8-0.1,1.3
					c0.1,0.5,0.3,0.8,0.6,0.8c2.4-3.1,4.7-5.6,6.7-7.5c1.8-1.7,4.2-3.5,7.3-5.4s4.9-2.7,5.5-2.5c0.1,0,0.2,0.1,0.2,0.2
					c0,0.4-0.7,1.2-2.1,2.5c-1.1,0.9-2.2,1.9-3.3,2.8c-2.2,2-3.7,3.6-4.5,4.8c-0.7,1-1.1,2-1.1,2.8c0,1.1,0.4,1.7,1.3,1.9
					c1.3,0.3,3.1-0.4,5.6-2.2c0.7-0.5,1.5-1.1,2.5-1.9c-0.6,0.7-1,1.4-1.3,2c-0.6,1.3-0.3,1.9,0.9,2.1c0.9,0.1,3-1.2,6.3-4
					c1.5-1.4,3.3-3.1,5.4-5.2c2-1.9,3.3-2.8,4-2.8h0.4c-5.8,5.4-8.5,8.8-8.2,10.2c0,1.1,0.6,1.7,1.9,1.7c1,0,2.8-1,5.5-3.1
					c0.6-0.5,1.2-0.9,1.7-1.4c-0.6,1.1-0.9,2.1-0.9,2.9c0,1,0.6,1.5,1.8,1.5s3.1-1,5.7-3.1c0.8-0.6,1.4-1.1,1.8-1.6
					c-0.7,1.1-1,2.1-1,2.9c0,1.1,0.6,1.7,1.9,1.7c1,0,2.8-1,5.5-3.1c0.4-0.3,0.7-0.6,1.1-0.8c-0.5,0.7-0.9,1.3-1.2,1.8
					c-0.6,1.3-0.3,1.9,0.9,2.1c0.9,0.1,3-1.2,6.3-4c1.5-1.4,3.3-3.1,5.4-5.2c2-1.9,3.3-2.8,4-2.8h0.4c-5.8,5.4-8.5,8.8-8.2,10.2
					c0,1.1,0.6,1.7,1.9,1.7c1,0,2.8-1,5.5-3.1c0.7-0.6,1.3-1.1,1.7-1.6c-0.7,1.1-1,2.1-1,2.9c0,1.1,0.6,1.7,1.9,1.7
					c1,0,2.8-1,5.5-3.1c0.4-0.3,0.8-0.6,1.2-1c-0.1,0.4-0.2,0.8-0.3,1.2c-0.1,1.7,0.7,2.7,2.4,2.8c1.7,0.2,3.9-0.6,6.4-2.4
					c1.2-0.8,2.3-1.7,3.5-2.7c-0.9,1.2-1.6,2.3-2.1,3.3c-0.2,0.4-0.2,0.8-0.1,1.3c0.1,0.5,0.3,0.8,0.6,0.8c2.4-3.1,4.5-5.4,6.1-7
					c0.6,0.7,2.5,0.7,5.9-0.2c-1.8,1.9-2.7,3.5-3,5.1c0,1.4,0.7,2,2.1,1.9c1,0,2.8-1,5.5-3.1c0.6-0.5,1.2-0.9,1.7-1.4
					c-0.7,0.9-1.2,1.8-1.6,2.6c-0.1,0.4-0.2,0.8-0.1,1.3c0.1,0.5,0.3,0.8,0.6,0.8c2.4-3,4.6-5.5,6.7-7.5c1.9-1.8,4.3-3.6,7.4-5.4
					c3-1.9,4.9-2.7,5.5-2.4c0.1,0,0.2,0.1,0.2,0.2c0,0.4-0.7,1.2-2.2,2.4c-1.9,1.7-3,2.7-3.2,2.9c-3,3.2-5,5.8-6,7.7
					c-0.1,0.3-0.2,0.7-0.1,1.2c0.1,0.6,0.2,0.8,0.5,0.8c3.1-3.8,5.7-6.6,7.7-8.4c1.8-1.6,4-3.1,6.6-4.7c2.5-1.5,4.2-2.3,4.9-2.3
					c0.2,0,0.3,0.1,0.3,0.3c0,0.4-0.7,1.2-2.1,2.4c-1.1,0.9-2.2,1.9-3.3,2.8c-2.2,2-3.7,3.6-4.5,4.8c-0.7,1-1.1,2-1.1,2.8
					c0,1.1,0.4,1.7,1.3,1.9c1.3,0.3,3.1-0.4,5.6-2.2c1.9-1.3,3.9-2.9,5.9-4.7C262.4,111.7,262.6,111.5,262.4,111.3z M216.8,105.4
					c1.9-1.4,3-1.9,3.3-1.7c0.1,0.1,0.1,0.2,0.1,0.3c0,0.7-0.8,1.7-2.4,3c-2.1,1.7-3.9,2.5-5.3,2.5c-0.2,0-0.3,0-0.4-0.1
					C213.4,108,215,106.7,216.8,105.4z"/>
			</g>
			<circle fill="#4A4A4A" cx="103.4" cy="117.2" r="0.8"/>
		</g>
	</g>
	<g enable-background="new    ">
		<path fill="#484848" d="M22.3,22.8h-4v7.7h-1.4v-9h6.9v9h-1.4V22.8z"/>
		<path fill="#484848" d="M26,26c0-1.5,0.3-2.7,1-3.5c0.7-0.8,1.7-1.2,2.9-1.2c0.7,0,1.3,0.1,1.8,0.3s0.9,0.5,1.2,1
			c0.3,0.4,0.6,0.9,0.7,1.5c0.2,0.6,0.2,1.2,0.2,1.9c0,1.5-0.3,2.7-1,3.5s-1.7,1.2-2.9,1.2c-0.7,0-1.3-0.1-1.8-0.3s-0.9-0.5-1.2-1
			c-0.3-0.4-0.6-0.9-0.7-1.5C26.1,27.4,26,26.7,26,26z M27.5,26c0,0.5,0,0.9,0.1,1.3c0.1,0.4,0.2,0.8,0.4,1.1
			c0.2,0.3,0.4,0.6,0.8,0.8c0.3,0.2,0.7,0.3,1.1,0.3c1.6,0,2.4-1.1,2.4-3.5c0-0.5,0-0.9-0.1-1.3s-0.2-0.8-0.4-1.1
			c-0.2-0.3-0.4-0.6-0.8-0.7c-0.3-0.2-0.7-0.3-1.1-0.3C28.3,22.5,27.5,23.7,27.5,26z"/>
		<path fill="#484848" d="M36.2,21.5h1l0.3,1.1h0.1c0.3-0.4,0.6-0.7,1.1-1c0.4-0.2,0.9-0.3,1.5-0.3c1.2,0,2.1,0.4,2.7,1.1
			s0.9,1.9,0.9,3.5c0,0.8-0.1,1.4-0.3,2c-0.2,0.6-0.5,1.1-0.8,1.5c-0.4,0.4-0.8,0.7-1.3,1s-1.1,0.3-1.7,0.3c-0.4,0-0.8,0-1.1-0.1
			c-0.3-0.1-0.5-0.1-0.8-0.3v3.7h-1.4V21.5z M39.8,22.5c-0.6,0-1.1,0.2-1.4,0.5c-0.4,0.3-0.6,0.8-0.7,1.4v4.5
			c0.2,0.2,0.5,0.3,0.7,0.4c0.3,0.1,0.6,0.1,1.1,0.1c0.8,0,1.5-0.3,2-0.9c0.5-0.6,0.7-1.5,0.7-2.7c0-0.5,0-0.9-0.1-1.3
			c-0.1-0.4-0.2-0.7-0.4-1c-0.2-0.3-0.4-0.5-0.7-0.7C40.6,22.6,40.2,22.5,39.8,22.5z"/>
		<path fill="#484848" d="M51.4,22.8h-2.8v7.7h-1.4v-7.7h-2.8v-1.3h7.1V22.8z"/>
		<path fill="#484848" d="M52.8,21.5h1l0.3,1.1h0.1c0.3-0.4,0.6-0.7,1.1-1c0.4-0.2,0.9-0.3,1.5-0.3c1.2,0,2.1,0.4,2.7,1.1
			s0.9,1.9,0.9,3.5c0,0.8-0.1,1.4-0.3,2c-0.2,0.6-0.5,1.1-0.8,1.5c-0.4,0.4-0.8,0.7-1.3,1s-1.1,0.3-1.7,0.3c-0.4,0-0.8,0-1.1-0.1
			c-0.3-0.1-0.5-0.1-0.8-0.3v3.7h-1.4V21.5z M56.4,22.5c-0.6,0-1.1,0.2-1.4,0.5c-0.4,0.3-0.6,0.8-0.7,1.4v4.5
			c0.2,0.2,0.5,0.3,0.7,0.4c0.3,0.1,0.6,0.1,1.1,0.1c0.8,0,1.5-0.3,2-0.9c0.5-0.6,0.7-1.5,0.7-2.7c0-0.5,0-0.9-0.1-1.3
			c-0.1-0.4-0.2-0.7-0.4-1c-0.2-0.3-0.4-0.5-0.7-0.7C57.2,22.6,56.8,22.5,56.4,22.5z"/>
		<path fill="#484848" d="M69.1,29.8c-0.4,0.3-0.8,0.5-1.4,0.7s-1.1,0.3-1.7,0.3c-0.7,0-1.3-0.1-1.8-0.3s-0.9-0.5-1.2-1
			s-0.6-0.9-0.7-1.5C62.1,27.4,62,26.7,62,26c0-1.5,0.3-2.7,1-3.5c0.7-0.8,1.7-1.2,2.9-1.2c0.4,0,0.8,0,1.2,0.1
			c0.4,0.1,0.8,0.3,1.1,0.5s0.6,0.6,0.8,1.1s0.3,1.1,0.3,1.8c0,0.4,0,0.8-0.1,1.3h-5.8c0,0.5,0.1,1,0.2,1.4c0.1,0.4,0.3,0.8,0.5,1
			c0.2,0.3,0.5,0.5,0.9,0.6c0.4,0.1,0.8,0.2,1.3,0.2c0.4,0,0.8-0.1,1.2-0.2c0.4-0.1,0.7-0.3,0.9-0.5L69.1,29.8z M66,22.5
			c-0.7,0-1.3,0.2-1.7,0.6c-0.4,0.4-0.7,1-0.8,1.9H68c0-0.9-0.2-1.6-0.5-1.9C67.1,22.7,66.6,22.5,66,22.5z"/>
		<path fill="#484848" d="M77.4,22.8h-2.8v7.7h-1.4v-7.7h-2.8v-1.3h7.1V22.8z"/>
		<path fill="#484848" d="M84.3,26.5h-4.1v4h-1.4v-9h1.4v3.8h4.1v-3.8h1.4v9h-1.4V26.5z"/>
		<path fill="#484848" d="M88.4,22.2c0.5-0.3,1-0.5,1.6-0.6c0.6-0.1,1.2-0.2,1.9-0.2c0.6,0,1.1,0.1,1.5,0.3s0.7,0.4,0.9,0.7
			c0.2,0.3,0.3,0.6,0.4,0.9c0.1,0.3,0.1,0.6,0.1,1c0,0.7,0,1.4-0.1,2.1c0,0.7-0.1,1.3-0.1,1.9c0,0.4,0,0.9,0.1,1.3
			c0,0.4,0.1,0.8,0.2,1.1h-1.1l-0.4-1.3h-0.1c-0.1,0.2-0.2,0.3-0.4,0.5c-0.2,0.2-0.4,0.3-0.6,0.4c-0.2,0.1-0.5,0.2-0.8,0.3
			c-0.3,0.1-0.6,0.1-1,0.1c-0.4,0-0.7-0.1-1.1-0.2s-0.6-0.3-0.9-0.5s-0.4-0.5-0.6-0.8c-0.1-0.3-0.2-0.7-0.2-1.1c0-0.5,0.1-1,0.3-1.3
			c0.2-0.4,0.5-0.6,0.9-0.8c0.4-0.2,0.9-0.4,1.4-0.5s1.1-0.1,1.8-0.1c0.2,0,0.3,0,0.5,0c0.2,0,0.3,0,0.5,0c0-0.4,0.1-0.7,0.1-1
			c0-0.7-0.1-1.1-0.4-1.4c-0.3-0.3-0.7-0.4-1.4-0.4c-0.2,0-0.4,0-0.7,0c-0.2,0-0.5,0.1-0.7,0.1s-0.5,0.1-0.7,0.2
			c-0.2,0.1-0.4,0.2-0.6,0.3L88.4,22.2z M91,29.4c0.3,0,0.6,0,0.9-0.1c0.3-0.1,0.5-0.2,0.7-0.3s0.4-0.3,0.5-0.5s0.2-0.3,0.3-0.5
			v-1.5c-0.2,0-0.3,0-0.5,0s-0.3,0-0.5,0c-0.4,0-0.7,0-1.1,0.1c-0.4,0-0.7,0.1-0.9,0.2c-0.3,0.1-0.5,0.3-0.6,0.5
			c-0.2,0.2-0.2,0.4-0.2,0.7c0,0.4,0.1,0.8,0.5,1C90.1,29.2,90.5,29.4,91,29.4z"/>
		<path fill="#484848" d="M102,26.8l-1.4,0.2l-2.4,3.5h-1.7l2.2-3.1l0.7-0.7c-0.6-0.1-1.2-0.3-1.6-0.8c-0.4-0.4-0.7-1-0.7-1.7
			c0-0.5,0.1-1,0.3-1.4c0.2-0.4,0.5-0.7,0.8-1c0.3-0.3,0.8-0.4,1.2-0.5c0.5-0.1,1-0.2,1.6-0.2c0.4,0,0.9,0,1.2,0.1
			c0.4,0.1,0.8,0.1,1.1,0.2v8.9H102V26.8z M102,22.7c-0.2-0.1-0.3-0.1-0.5-0.1c-0.2,0-0.4,0-0.5,0c-0.8,0-1.4,0.1-1.8,0.4
			s-0.6,0.7-0.6,1.3c0,0.5,0.2,1,0.6,1.3s1,0.4,1.7,0.4c0,0,0,0,0.1,0c0,0,0.1,0,0.1,0s0.2,0,0.3,0c0.1,0,0.3,0,0.6,0V22.7z"/>
	</g>
	<g enable-background="new    ">
		<path fill="#484848" d="M23,51.5c-0.4,0.3-0.8,0.5-1.3,0.6c-0.5,0.1-1,0.2-1.5,0.2c-0.7,0-1.3-0.1-1.8-0.3c-0.5-0.2-0.9-0.5-1.2-1
			c-0.3-0.4-0.5-0.9-0.7-1.5c-0.1-0.6-0.2-1.2-0.2-1.9c0-1.5,0.3-2.7,1-3.5c0.7-0.8,1.6-1.2,2.9-1.2c0.6,0,1.1,0,1.5,0.1
			s0.8,0.2,1.1,0.4l-0.4,1.2c-0.3-0.2-0.6-0.3-0.9-0.4c-0.3-0.1-0.7-0.1-1.1-0.1c-1.7,0-2.6,1.2-2.6,3.5c0,0.5,0,0.9,0.1,1.3
			c0.1,0.4,0.2,0.8,0.4,1.1c0.2,0.3,0.5,0.6,0.8,0.8c0.3,0.2,0.8,0.3,1.3,0.3c0.4,0,0.8-0.1,1.2-0.2c0.3-0.1,0.6-0.3,0.8-0.5
			L23,51.5z"/>
		<path fill="#484848" d="M30.5,44.4h-2.8v7.7h-1.4v-7.7h-2.8v-1.3h7.1V44.4z"/>
		<path fill="#484848" d="M34.5,48.9l0.5,1.7h0.1l0.4-1.7l1.8-5.8h1.4l-2.7,8.1c-0.2,0.6-0.4,1.2-0.6,1.7c-0.2,0.6-0.4,1-0.7,1.5
			c-0.2,0.4-0.5,0.8-0.8,1c-0.3,0.3-0.6,0.4-1,0.4c-0.4,0-0.8-0.1-1.1-0.2l0.3-1.2c0.2,0.1,0.3,0.1,0.5,0.1c0.3,0,0.7-0.2,1-0.5
			c0.3-0.4,0.6-1,0.8-1.8l-3.6-9h1.7L34.5,48.9z"/>
		<path fill="#484848" d="M48,54.4h-1l-0.3-2.3H40l-0.3,2.3h-1v-3.5h1.1c0.1-0.1,0.2-0.4,0.4-0.7c0.2-0.3,0.3-0.8,0.5-1.4
			c0.1-0.6,0.3-1.4,0.4-2.3s0.2-2,0.2-3.3h5.4v7.7H48V54.4z M45.2,50.8v-6.5h-2.7c0,0.5-0.1,1.1-0.1,1.6c-0.1,0.6-0.1,1.2-0.2,1.8
			c-0.1,0.6-0.2,1.2-0.4,1.7s-0.3,1-0.5,1.4H45.2z"/>
		<path fill="#484848" d="M55.4,46.8l0.1-1.1h-0.1l-0.7,1.2l-4,5.3h-0.8v-9h1.4v5.5l-0.1,1.1h0.1l0.7-1.1l4-5.4h0.8v9h-1.4V46.8z"/>
		<path fill="#484848" d="M64.1,48.4l-1.4,0.2l-2.4,3.5h-1.7l2.2-3.1l0.7-0.7c-0.6-0.1-1.2-0.3-1.6-0.8c-0.4-0.4-0.7-1-0.7-1.7
			c0-0.5,0.1-1,0.3-1.4c0.2-0.4,0.5-0.7,0.8-1c0.3-0.3,0.8-0.4,1.2-0.5c0.5-0.1,1-0.2,1.6-0.2c0.4,0,0.9,0,1.2,0.1
			c0.4,0.1,0.8,0.1,1.1,0.2v8.9h-1.4V48.4z M64.1,44.3c-0.2-0.1-0.3-0.1-0.5-0.1c-0.2,0-0.4,0-0.5,0c-0.8,0-1.4,0.1-1.8,0.4
			s-0.6,0.7-0.6,1.3c0,0.5,0.2,1,0.6,1.3s1,0.4,1.7,0.4c0,0,0,0,0.1,0c0,0,0.1,0,0.1,0s0.2,0,0.3,0c0.1,0,0.3,0,0.6,0V44.3z"/>
	</g>
</g>
</svg>
