<?xml version="1.0" encoding="utf-8"?>
<!-- Generator: Adobe Illustrator 17.1.0, SVG Export Plug-In . SVG Version: 6.00 Build 0)  -->
<!DOCTYPE svg PUBLIC "-//W3C//DTD SVG 1.1//EN" "http://www.w3.org/Graphics/SVG/1.1/DTD/svg11.dtd">
<svg version="1.1" id="Capa_1" xmlns="http://www.w3.org/2000/svg" xmlns:xlink="http://www.w3.org/1999/xlink" x="0px" y="0px"
	 width="28px" height="24px" viewBox="0 0 28 24" enable-background="new 0 0 28 24" xml:space="preserve">
<g>
	<g>
		<path fill="#FFFFFF" d="M27.6,6.9c0.2,0,0.4-0.2,0.4-0.4V4.7c0-0.2-0.2-0.4-0.4-0.4H0.4C0.2,4.4,0,4.5,0,4.7v1.8
			c0,0.2,0.2,0.4,0.4,0.4L27.6,6.9L27.6,6.9z"/>
		<path fill="#FFFFFF" d="M0,12.9c0,0.2,0.2,0.4,0.4,0.4h27.3c0.2,0,0.4-0.2,0.4-0.4v-1.8c0-0.2-0.2-0.4-0.4-0.4H0.4
			c-0.2,0-0.4,0.2-0.4,0.4V12.9z"/>
		<path fill="#FFFFFF" d="M0,19.3c0,0.2,0.2,0.4,0.4,0.4h27.3c0.2,0,0.4-0.2,0.4-0.4v-1.8c0-0.2-0.2-0.4-0.4-0.4H0.4
			c-0.2,0-0.4,0.2-0.4,0.4V19.3z"/>
	</g>
</g>
</svg>
